<svg width="266" height="174" viewBox="0 0 266 174" fill="none" xmlns="http://www.w3.org/2000/svg">
<path fill-rule="evenodd" clip-rule="evenodd" d="M221.935 145.87C209.222 145.87 197.029 140.82 188.04 131.83C179.05 122.841 174 110.648 174 97.9351C174 85.2219 179.05 73.0296 188.04 64.04C197.029 55.0505 209.222 50 221.935 50H265.779V145.87H221.935Z" fill="#153CA3"/>
<path fill-rule="evenodd" clip-rule="evenodd" d="M38.3687 0C50.5338 0.000371071 62.5797 2.2507 73.8186 6.62284C85.0574 10.995 95.2692 17.4031 103.871 25.4814C112.473 33.5597 119.296 43.1503 123.95 53.7048C128.605 64.2594 131.001 75.5712 131 86.9952C131.002 98.4198 128.607 109.733 123.953 120.289C119.298 130.844 112.476 140.435 103.874 148.514C95.2721 156.594 85.06 163.003 73.8206 167.376C62.5811 171.749 50.5345 173.999 38.3687 174C-12.7896 174 -12.7896 0 38.3687 0Z" fill="#F96857"/>
</svg>
